<svg width="40" height="40" viewBox="0 0 40 40" fill="none" xmlns="http://www.w3.org/2000/svg">
<path fill-rule="evenodd" clip-rule="evenodd" d="M20.0433 3.33331C10.8617 3.33331 3.41998 10.775 3.41998 19.9566C3.41998 27.3 8.18165 33.5316 14.7883 35.7316C15.62 35.8816 15.92 35.37 15.92 34.93C15.92 34.535 15.9067 33.4883 15.9017 32.1033C11.2767 33.1066 10.3 29.8733 10.3 29.8733C9.54665 27.9533 8.45498 27.4416 8.45498 27.4416C6.94665 26.41 8.56998 26.4333 8.56998 26.4333C10.24 26.55 11.115 28.1466 11.115 28.1466C12.5983 30.6866 15.0083 29.9533 15.9517 29.5283C16.1033 28.4533 16.5367 27.72 17.01 27.305C13.32 26.8866 9.43998 25.46 9.43998 19.0883C9.43998 17.2766 10.0883 15.79 11.1467 14.63C10.9783 14.2083 10.4033 12.5166 11.3117 10.23C11.3117 10.23 12.7067 9.78165 15.8817 11.9316C17.2376 11.5628 18.6364 11.3745 20.0417 11.3716C21.447 11.3739 22.8458 11.5622 24.2017 11.9316C27.3783 9.77998 28.7717 10.23 28.7717 10.23C29.68 12.5166 29.11 14.2083 28.9367 14.63C30.0033 15.79 30.6433 17.275 30.6433 19.0883C30.6433 25.4766 26.76 26.88 23.0567 27.2916C23.6483 27.805 24.1817 28.8183 24.1817 30.3683C24.1817 32.5916 24.1617 34.385 24.1617 34.93C24.1617 35.375 24.4583 35.8916 25.3067 35.7283C31.91 33.525 36.6667 27.2983 36.6667 19.9566C36.6667 10.775 29.225 3.33331 20.0433 3.33331Z" fill="#C2E8FD"/>
<rect x="0.5" y="0.5" width="39" height="39" stroke="#C2E8FD"/>
</svg>
