<svg width="40" height="40" viewBox="0 0 40 40" fill="none" xmlns="http://www.w3.org/2000/svg">
<path d="M32.7216 13.3283C32.7433 13.62 32.7433 13.91 32.7433 14.2C32.7433 23.075 25.9883 33.3016 13.6433 33.3016C9.83998 33.3016 6.30665 32.2 3.33331 30.2866C3.87331 30.3483 4.39331 30.37 4.95498 30.37C7.97663 30.3773 10.9127 29.3669 13.29 27.5016C11.889 27.4763 10.5309 27.0141 9.40538 26.1795C8.27981 25.345 7.44295 24.1798 7.01165 22.8466C7.42665 22.9083 7.84331 22.95 8.27998 22.95C8.88165 22.95 9.48665 22.8666 10.0483 22.7216C8.52791 22.4147 7.16077 21.5906 6.17934 20.3894C5.19792 19.1883 4.6628 17.6844 4.66498 16.1333V16.05C5.55998 16.5483 6.59831 16.86 7.69831 16.9016C6.77679 16.2893 6.02118 15.4583 5.49888 14.483C4.97658 13.5076 4.70383 12.4181 4.70498 11.3116C4.70498 10.065 5.03665 8.92164 5.61831 7.92497C7.30521 10 9.40915 11.6976 11.7939 12.9077C14.1786 14.1179 16.7909 14.8137 19.4616 14.95C19.3583 14.45 19.295 13.9316 19.295 13.4116C19.2945 12.5299 19.4679 11.6567 19.8051 10.842C20.1423 10.0273 20.6368 9.28709 21.2603 8.66362C21.8838 8.04014 22.624 7.54566 23.4387 7.20843C24.2534 6.87121 25.1266 6.69787 26.0083 6.6983C27.9416 6.6983 29.6866 7.5083 30.9133 8.8183C32.4163 8.52767 33.8575 7.97901 35.1733 7.19664C34.6723 8.748 33.6229 10.0635 32.2216 10.8966C33.5546 10.7446 34.8574 10.3941 36.0866 9.85664C35.1685 11.1951 34.0308 12.3689 32.7216 13.3283Z" fill="#C2E8FD"/>
<rect x="0.5" y="0.5" width="39" height="39" stroke="#C2E8FD"/>
</svg>
